<?xml version="1.0" standalone="no"?>
<!DOCTYPE svg PUBLIC "-//W3C//DTD SVG 20010904//EN"
 "http://www.w3.org/TR/2001/REC-SVG-20010904/DTD/svg10.dtd">
<svg version="1.0" xmlns="http://www.w3.org/2000/svg"
 width="512.000000pt" height="512.000000pt" viewBox="0 0 512.000000 512.000000"
 preserveAspectRatio="xMidYMid meet">

<g transform="translate(0.000000,512.000000) scale(0.100000,-0.100000)"
fill="#000000" stroke="none">
<path d="M0 2560 l0 -2560 2560 0 2560 0 0 2560 0 2560 -2560 0 -2560 0 0
-2560z m2770 2229 c977 -89 1788 -819 1985 -1786 80 -396 47 -836 -91 -1212
-255 -692 -844 -1224 -1553 -1401 -1117 -280 -2251 318 -2655 1401 -46 124
-81 261 -108 419 -29 168 -31 499 -5 670 77 497 285 910 637 1260 295 295 618
482 1012 584 258 68 517 89 778 65z"/>
<path d="M1236 3975 c-31 -25 -60 -54 -66 -65 -29 -55 8 -120 68 -120 23 0 45
12 84 47 29 25 58 54 65 62 20 26 15 70 -12 96 -37 38 -74 33 -139 -20z"/>
<path d="M967 3666 c-76 -81 -267 -498 -267 -580 0 -41 37 -76 79 -76 51 0 63
16 105 137 47 133 94 235 161 347 34 57 55 104 55 123 0 65 -88 98 -133 49z"/>
<path d="M1845 3518 c-3 -7 -4 -443 -3 -968 l3 -955 172 -3 173 -2 2 377 3
378 290 6 c324 6 352 11 491 79 63 31 96 55 149 111 106 113 149 229 149 399
-2 333 -209 542 -574 580 -152 15 -849 14 -855 -2z m857 -268 c85 -26 138 -73
180 -158 30 -61 33 -74 33 -162 0 -84 -3 -102 -28 -152 -37 -75 -96 -132 -165
-160 -52 -20 -78 -22 -294 -26 l-238 -4 0 341 0 341 224 0 c195 0 232 -3 288
-20z"/>
</g>
</svg>
